<?xml version="1.0" encoding="UTF-8"?>
<svg width="19px" height="12px" viewBox="0 0 19 12" version="1.1" xmlns="http://www.w3.org/2000/svg" xmlns:xlink="http://www.w3.org/1999/xlink">
    <!-- Generator: sketchtool 48.1 (47250) - http://www.bohemiancoding.com/sketch -->
    <title>A103267A-BC64-4213-92D1-249058C9B50D</title>
    <desc>Created with sketchtool.</desc>
    <defs></defs>
    <g id="Home" stroke="none" stroke-width="1" fill="none" fill-rule="evenodd" transform="translate(-225.000000, -171.000000)">
        <g id="Stacked-Group-2" transform="translate(48.000000, 113.000000)" fill="#FFFFFF" fill-rule="nonzero">
            <g id="Group-2">
                <g id="Group" transform="translate(186.666667, 64.166667) rotate(90.000000) translate(-186.666667, -64.166667) translate(181.166667, 55.166667)">
                    <path d="M4.93181699,0.207703908 L0.299339001,4.26043754 C-0.0827680744,4.59920263 -0.0852174973,5.14286286 0.213273345,5.48630584 C0.511761293,5.82974881 1.09591391,5.87064853 1.43936295,5.57214921 L4.63323929,2.77684807 L4.63323929,17.0789189 C4.63323929,17.5585476 5.02213584,17.9473684 5.50182896,17.9473684 C5.98155104,17.9473684 6.37041864,17.5585476 6.37041864,17.0789189 L6.37041864,2.77684807 L9.56429527,5.57214921 C9.90774431,5.87064853 10.4832718,5.82206329 10.7903849,5.48630584 C11.1121221,5.13456366 11.0478696,4.55881817 10.7043192,4.26043754 L6.07184094,0.207703908 C5.69222961,-0.0768283087 5.26413361,-0.0615354221 4.93181699,0.207703908 Z" id="Shape"></path>
                </g>
            </g>
        </g>
    </g>
</svg>